<svg xmlns="http://www.w3.org/2000/svg">
    <symbol viewBox="0 0 24 25" id="facebook">
    <path d="M24 12.5733C24 5.90541 18.6274 0.5 12 0.5C5.37258 0.5 0 5.90541 0 12.5733C0 18.5995 4.38823 23.5943 10.125 24.5V16.0633H7.07813V12.5733H10.125V9.91343C10.125 6.88755 11.9165 5.21615 14.6576 5.21615C15.9705 5.21615 17.3438 5.45195 17.3438 5.45195V8.42313H15.8306C14.3399 8.42313 13.875 9.35379 13.875 10.3086V12.5733H17.2031L16.6711 16.0633H13.875V24.5C19.6118 23.5943 24 18.5995 24 12.5733Z" />
    </symbol>

    <symbol width="24" height="25" viewBox="0 0 24 25" id="facebook2">
    <path d="M22.6755 0.890625H1.3245C0.5925 0.890625 0 1.48313 0 2.21513V23.5661C0 24.2981 0.5925 24.8906 1.3245 24.8906H12.819V15.5966H9.69V11.9756H12.819V9.30112C12.819 6.20212 14.712 4.51613 17.478 4.51613C18.8025 4.51613 19.941 4.61212 20.2725 4.65712V7.89713H18.3525C16.8525 7.89713 16.56 8.61712 16.56 9.66712V11.9771H20.145L19.68 15.6071H16.56V24.8906H22.6755C23.4075 24.8906 24 24.2981 24 23.5661V2.21513C24 1.48313 23.4075 0.890625 22.6755 0.890625Z" />
    </symbol>

    <symbol viewBox="0 0 24 25" id="telegram">
    <path d="M8.99997 18.832L7.49997 14.332L24 2.33203L0.932967 11.203C0.932967 11.203 -0.0750331 11.548 0.00446695 12.1855C0.0839669 12.823 0.907467 13.114 0.907467 13.114L6.26997 14.9185L8.69997 22.6495L12.813 19.033L12.8025 19.0255L18.213 23.1745C19.6725 23.812 20.2035 22.4845 20.2035 22.4845L24 2.33203L8.99997 18.832Z"/>
    </symbol>

    <symbol viewBox="0 0 24 25" id="linkedin">
    <path d="M3.6 9.89062H7.2V21.2906H3.6V9.89062ZM5.4 4.19063C6.6 4.19063 7.5 5.09062 7.5 6.29062C7.35 7.34062 6.45 8.39062 5.4 8.39062C4.2 8.39062 3.3 7.34062 3.3 6.29062C3.3 5.09062 4.2 4.19063 5.4 4.19063ZM9.3 9.89062H12.75V11.3906C13.5 10.1906 14.85 9.59063 16.2 9.59063C19.8 9.59063 20.4 11.9906 20.4 14.9906V21.2906H16.8V15.7406C16.8 14.3906 16.8 12.7406 15 12.7406C13.2 12.7406 12.9 14.2406 12.9 15.7406V21.4406H9.3V9.89062ZM19.5 0.890625H4.5C1.5 0.890625 0 2.39062 0 5.39062V20.3906C0 23.3906 1.5 24.8906 4.5 24.8906H19.5C22.5 24.8906 24 23.3906 24 20.3906V5.39062C24 2.39062 22.5 0.890625 19.5 0.890625Z"/>
    </symbol>

    <symbol  viewBox="0 0 64 64" id="ecommerce">
    <path d="M23.7339 28.125C24.8379 28.125 25.7339 27.229 25.7339 26.125V18.325C25.7339 14.838 28.5709 12 32.0579 12C35.5449 12 38.3829 14.838 38.3829 18.325V26.125C38.3829 27.229 39.2779 28.125 40.3829 28.125C41.4869 28.125 42.3829 27.229 42.3829 26.125V18.325C42.3839 12.632 37.7519 8 32.0579 8C26.3659 8 21.7339 12.632 21.7339 18.325V26.125C21.7339 27.229 22.6299 28.125 23.7339 28.125Z" fill="url(#paint0_linear_22728_7797)"/>
    <path d="M55 23.6309H44.384V26.1249C44.384 28.3309 42.59 30.1249 40.384 30.1249C38.178 30.1249 36.384 28.3309 36.384 26.1249V23.6309H27.735V26.1249C27.735 28.3309 25.941 30.1249 23.735 30.1249C21.529 30.1249 19.735 28.3309 19.735 26.1249V23.6309H8.99997C8.44797 23.6309 8.10697 24.0659 8.23797 24.6019L15.236 53.0989C15.658 54.7009 17.344 55.9999 19 55.9999H45C46.658 55.9999 48.342 54.7009 48.766 53.0989L55.762 24.6019C55.893 24.0649 55.553 23.6309 55 23.6309Z" fill="url(#paint1_linear_22728_7797)"/>
    <path d="M28.6001 34.4C28.6001 33.6265 29.2266 33 30.0001 33C30.7736 33 31.4001 33.6265 31.4001 34.4V41.35L31.4001 40C31.4001 39.2265 32.0266 38.6 32.8001 38.6C33.5736 38.6 34.2001 39.2265 34.2001 40V41.6764C34.2127 40.9141 34.8346 39.3 35.6 39.3C36.3731 39.3 36.9999 39.9268 37 40.7C37 40.7 37.0411 41.7411 37.1332 41.8033C37.3572 41.3285 37.8402 40 38.4 40C39.1732 40 39.8 40.6268 39.8 41.4V48.4C39.8 49.9463 38.5463 51.2 37 51.2H32.3198C30.8344 51.2 29.4099 50.6099 28.3599 49.5599L26.15 47.35L23 45.9402C23.0051 44.6033 24.0526 44.2 25.1 44.2C26.0023 44.2 26.8136 44.3407 28.6 45.25L28.6001 34.4Z" fill="white"/>
    <defs>
      <linearGradient id="paint0_linear_22728_7797" x1="32.0584" y1="8" x2="32.0584" y2="28.125" gradientUnits="userSpaceOnUse">
        <stop stop-color="#EF8080"/>
        <stop offset="1" stop-color="#F0145A"/>
      </linearGradient>
      <linearGradient id="paint1_linear_22728_7797" x1="32" y1="23.6309" x2="32" y2="55.9999" gradientUnits="userSpaceOnUse">
        <stop stop-color="#EF8080"/>
        <stop offset="1" stop-color="#F0145A"/>
      </linearGradient>
    </defs>
  </symbol>

  <symbol viewBox="0 0 65 64" id="support">
    <path fill-rule="evenodd" clip-rule="evenodd" d="M53.7847 35.0762V52.3713C53.7847 55.4647 51.3604 57.9997 48.3966 57.9997H16.3036C13.3398 57.9997 10.9155 55.4647 10.9155 52.3713V35.0762H27.5816V42.587L32.3501 45.7204L37.1186 42.587V35.0762H53.7847Z" fill="url(#paint0_linear_22728_7803)"/>
    <path fill-rule="evenodd" clip-rule="evenodd" d="M29.252 35.0762V41.6847L32.35 43.7202L35.4481 41.6847V35.0762H29.252Z" fill="url(#paint1_linear_22728_7803)"/>
    <path fill-rule="evenodd" clip-rule="evenodd" d="M12.4069 15.1426H52.2934C54.1758 15.1426 55.7143 16.8507 55.7143 18.938V29.1912C55.7143 31.2786 54.1758 32.9867 52.2934 32.9867H36.6475H28.0529H12.4069C10.5245 32.9867 8.98608 31.2786 8.98608 29.1912V18.938C8.98608 16.8507 10.5245 15.1426 12.4069 15.1426Z" fill="url(#paint2_linear_22728_7803)"/>
    <path fill-rule="evenodd" clip-rule="evenodd" d="M24.0455 5.95508H40.655C42.1982 5.95508 43.461 7.21788 43.461 8.76103V13.1384H39.9035V10.5516C39.9035 9.8542 39.3333 9.2817 38.6359 9.2817H26.0645C25.3672 9.2817 24.797 9.8542 24.797 10.5516V13.1384H21.2395V8.76103C21.2395 7.21788 22.5023 5.95508 24.0455 5.95508Z" fill="url(#paint3_linear_22728_7803)"/>
    <defs>
      <linearGradient id="paint0_linear_22728_7803" x1="32.3501" y1="35.0762" x2="32.3501" y2="57.9997" gradientUnits="userSpaceOnUse">
        <stop stop-color="#EF8080"/>
        <stop offset="1" stop-color="#F0145A"/>
      </linearGradient>
      <linearGradient id="paint1_linear_22728_7803" x1="32.35" y1="35.0762" x2="32.35" y2="43.7202" gradientUnits="userSpaceOnUse">
        <stop stop-color="#EF8080"/>
        <stop offset="1" stop-color="#F0145A"/>
      </linearGradient>
      <linearGradient id="paint2_linear_22728_7803" x1="32.3502" y1="15.1426" x2="32.3502" y2="32.9867" gradientUnits="userSpaceOnUse">
        <stop stop-color="#EF8080"/>
        <stop offset="1" stop-color="#F0145A"/>
      </linearGradient>
      <linearGradient id="paint3_linear_22728_7803" x1="32.3502" y1="5.95508" x2="32.3502" y2="13.1384" gradientUnits="userSpaceOnUse">
        <stop stop-color="#EF8080"/>
        <stop offset="1" stop-color="#F0145A"/>
      </linearGradient>
    </defs>
  </symbol>

  <svg viewBox="0 0 65 64" id="corporate">
  <g clip-path="url(#clip0_22728_7809)">
  <path d="M61.1932 37.7273C60.5057 37.4426 59.782 37.2982 59.0421 37.2982C57.4104 37.2982 55.9031 37.9946 54.8565 39.1615L53.6365 38.6562L50.1564 37.2147C50.6502 35.5616 50.9167 33.8113 50.9167 31.9998C50.9167 30.1883 50.6501 28.4381 50.1564 26.7849L53.6365 25.3435L54.8565 24.8381C55.9031 26.0051 57.4104 26.7014 59.0421 26.7014C59.782 26.7014 60.5057 26.5571 61.1932 26.2722C64.0586 25.0852 65.4243 21.7883 64.2373 18.9227C63.3633 16.8128 61.3229 15.4493 59.0391 15.4493C58.2992 15.4493 57.5755 15.5937 56.888 15.8786C54.6297 16.814 53.3042 19.0598 53.4242 21.3722L52.1971 21.8805L48.7181 23.3215C47.028 20.208 44.4585 17.6383 41.345 15.9483L42.786 12.4694L43.2938 11.2436C43.3921 11.2487 43.4908 11.2517 43.5898 11.2517C45.8736 11.2517 47.914 9.88836 48.7881 7.77836C49.975 4.91287 48.6094 1.61587 45.7439 0.428874C45.0563 0.144375 44.3326 0 43.5928 0C41.3089 0 39.2685 1.36337 38.3944 3.47337C37.459 5.73161 38.1098 8.25698 39.8298 9.80723L39.3233 11.0301L37.8818 14.5102C36.2286 14.0165 34.4784 13.7498 32.6669 13.7498C30.8554 13.7498 29.1052 14.0165 27.452 14.5102L26.0105 11.0301L25.504 9.80723C27.224 8.25698 27.8748 5.73161 26.9394 3.47324C26.0653 1.36337 24.0247 0 21.7409 0C21.0011 0 20.2773 0.144375 19.5898 0.429249C16.7244 1.61625 15.3587 4.91312 16.5457 7.77874C17.4197 9.88861 19.4602 11.2521 21.7439 11.2521C21.8429 11.2521 21.9416 11.2491 22.0399 11.244L22.5477 12.4697L23.9887 15.9487C20.8752 17.6388 18.3056 20.2083 16.6156 23.3218L13.1366 21.8808L11.9094 21.3726C12.0294 19.0602 10.7039 16.8143 8.4457 15.8788C7.7582 15.5941 7.03445 15.4497 6.29458 15.4497C4.01071 15.4497 1.97034 16.8131 1.09621 18.9231C-0.0906587 21.7886 1.27496 25.0856 4.14046 26.2726C4.82796 26.5573 5.55171 26.7017 6.29158 26.7017C7.92333 26.7017 9.43057 26.0053 10.4772 24.8383L11.6972 25.3437L15.1773 26.7852C14.6834 28.4383 14.4169 30.1886 14.4169 32.0001C14.4169 33.8116 14.6836 35.5618 15.1773 37.2149L11.6971 38.6562L10.4771 39.1615C9.43045 37.9946 7.9232 37.2982 6.29145 37.2982C5.55158 37.2982 4.82783 37.4426 4.14033 37.7274C1.27496 38.9144 -0.0907838 42.2113 1.09621 45.0769C1.97021 47.1868 4.01071 48.5503 6.29445 48.5503C7.03433 48.5503 7.75808 48.4059 8.44558 48.121C10.7038 47.1857 12.0293 44.9398 11.9093 42.6274L13.1364 42.1192L16.6154 40.6782C18.3056 43.7917 20.8751 46.3613 23.9885 48.0513L22.5476 51.5303L22.0398 52.756C21.9414 52.7509 21.8428 52.7479 21.7438 52.7479C19.4599 52.7479 17.4196 54.1113 16.5454 56.2213C15.3586 59.0868 16.7242 62.3838 19.5897 63.5708C20.2772 63.8555 21.0009 63.9999 21.7408 63.9999C24.0247 63.9999 26.065 62.6365 26.9392 60.5265C27.8745 58.2683 27.2238 55.7429 25.5038 54.1926L26.0103 52.9698L27.4518 49.4897C29.1049 49.9834 30.8552 50.25 32.6667 50.25C34.4781 50.25 36.2284 49.9834 37.8815 49.4897L39.323 52.9698L39.8295 54.1926C38.1095 55.7429 37.4588 58.2683 38.3941 60.5266C39.2681 62.6365 41.3086 64 43.5924 64C44.3323 64 45.056 63.8556 45.7435 63.5708C48.6089 62.3838 49.9746 59.0869 48.7876 56.2213C47.9136 54.1114 45.8731 52.7479 43.5894 52.7479C43.4904 52.7479 43.3918 52.7509 43.2934 52.756L42.7856 51.5303L41.3446 48.0513C44.4581 46.3612 47.0278 43.7917 48.7178 40.6782L52.1967 42.1192L53.4239 42.6274C53.3039 44.9398 54.6294 47.1857 56.8876 48.1212C57.5751 48.4059 58.2989 48.5503 59.0387 48.5503C61.3226 48.5503 63.363 47.1869 64.2371 45.0769C65.4243 42.2113 64.0588 38.9143 61.1932 37.7273ZM32.6669 46.4998C24.6717 46.4998 18.1669 39.995 18.1669 31.9998C18.1669 24.0046 24.6717 17.4998 32.6669 17.4998C40.6621 17.4998 47.1669 24.0046 47.1669 31.9998C47.1669 39.995 40.662 46.4998 32.6669 46.4998Z" fill="black"/>
  <path d="M61.1932 37.7273C60.5057 37.4426 59.782 37.2982 59.0421 37.2982C57.4104 37.2982 55.9031 37.9946 54.8565 39.1615L53.6365 38.6562L50.1564 37.2147C50.6502 35.5616 50.9167 33.8113 50.9167 31.9998C50.9167 30.1883 50.6501 28.4381 50.1564 26.7849L53.6365 25.3435L54.8565 24.8381C55.9031 26.0051 57.4104 26.7014 59.0421 26.7014C59.782 26.7014 60.5057 26.5571 61.1932 26.2722C64.0586 25.0852 65.4243 21.7883 64.2373 18.9227C63.3633 16.8128 61.3229 15.4493 59.0391 15.4493C58.2992 15.4493 57.5755 15.5937 56.888 15.8786C54.6297 16.814 53.3042 19.0598 53.4242 21.3722L52.1971 21.8805L48.7181 23.3215C47.028 20.208 44.4585 17.6383 41.345 15.9483L42.786 12.4694L43.2938 11.2436C43.3921 11.2487 43.4908 11.2517 43.5898 11.2517C45.8736 11.2517 47.914 9.88836 48.7881 7.77836C49.975 4.91287 48.6094 1.61587 45.7439 0.428874C45.0563 0.144375 44.3326 0 43.5928 0C41.3089 0 39.2685 1.36337 38.3944 3.47337C37.459 5.73161 38.1098 8.25698 39.8298 9.80723L39.3233 11.0301L37.8818 14.5102C36.2286 14.0165 34.4784 13.7498 32.6669 13.7498C30.8554 13.7498 29.1052 14.0165 27.452 14.5102L26.0105 11.0301L25.504 9.80723C27.224 8.25698 27.8748 5.73161 26.9394 3.47324C26.0653 1.36337 24.0247 0 21.7409 0C21.0011 0 20.2773 0.144375 19.5898 0.429249C16.7244 1.61625 15.3587 4.91312 16.5457 7.77874C17.4197 9.88861 19.4602 11.2521 21.7439 11.2521C21.8429 11.2521 21.9416 11.2491 22.0399 11.244L22.5477 12.4697L23.9887 15.9487C20.8752 17.6388 18.3056 20.2083 16.6156 23.3218L13.1366 21.8808L11.9094 21.3726C12.0294 19.0602 10.7039 16.8143 8.4457 15.8788C7.7582 15.5941 7.03445 15.4497 6.29458 15.4497C4.01071 15.4497 1.97034 16.8131 1.09621 18.9231C-0.0906587 21.7886 1.27496 25.0856 4.14046 26.2726C4.82796 26.5573 5.55171 26.7017 6.29158 26.7017C7.92333 26.7017 9.43057 26.0053 10.4772 24.8383L11.6972 25.3437L15.1773 26.7852C14.6834 28.4383 14.4169 30.1886 14.4169 32.0001C14.4169 33.8116 14.6836 35.5618 15.1773 37.2149L11.6971 38.6562L10.4771 39.1615C9.43045 37.9946 7.9232 37.2982 6.29145 37.2982C5.55158 37.2982 4.82783 37.4426 4.14033 37.7274C1.27496 38.9144 -0.0907838 42.2113 1.09621 45.0769C1.97021 47.1868 4.01071 48.5503 6.29445 48.5503C7.03433 48.5503 7.75808 48.4059 8.44558 48.121C10.7038 47.1857 12.0293 44.9398 11.9093 42.6274L13.1364 42.1192L16.6154 40.6782C18.3056 43.7917 20.8751 46.3613 23.9885 48.0513L22.5476 51.5303L22.0398 52.756C21.9414 52.7509 21.8428 52.7479 21.7438 52.7479C19.4599 52.7479 17.4196 54.1113 16.5454 56.2213C15.3586 59.0868 16.7242 62.3838 19.5897 63.5708C20.2772 63.8555 21.0009 63.9999 21.7408 63.9999C24.0247 63.9999 26.065 62.6365 26.9392 60.5265C27.8745 58.2683 27.2238 55.7429 25.5038 54.1926L26.0103 52.9698L27.4518 49.4897C29.1049 49.9834 30.8552 50.25 32.6667 50.25C34.4781 50.25 36.2284 49.9834 37.8815 49.4897L39.323 52.9698L39.8295 54.1926C38.1095 55.7429 37.4588 58.2683 38.3941 60.5266C39.2681 62.6365 41.3086 64 43.5924 64C44.3323 64 45.056 63.8556 45.7435 63.5708C48.6089 62.3838 49.9746 59.0869 48.7876 56.2213C47.9136 54.1114 45.8731 52.7479 43.5894 52.7479C43.4904 52.7479 43.3918 52.7509 43.2934 52.756L42.7856 51.5303L41.3446 48.0513C44.4581 46.3612 47.0278 43.7917 48.7178 40.6782L52.1967 42.1192L53.4239 42.6274C53.3039 44.9398 54.6294 47.1857 56.8876 48.1212C57.5751 48.4059 58.2989 48.5503 59.0387 48.5503C61.3226 48.5503 63.363 47.1869 64.2371 45.0769C65.4243 42.2113 64.0588 38.9143 61.1932 37.7273ZM32.6669 46.4998C24.6717 46.4998 18.1669 39.995 18.1669 31.9998C18.1669 24.0046 24.6717 17.4998 32.6669 17.4998C40.6621 17.4998 47.1669 24.0046 47.1669 31.9998C47.1669 39.995 40.662 46.4998 32.6669 46.4998Z" fill="url(#paint0_linear_22728_7809)"/>
  <path d="M32.6667 21.25C26.7392 21.25 21.9167 26.0725 21.9167 32C21.9167 37.9275 26.7392 42.75 32.6667 42.75C38.5942 42.75 43.4167 37.9275 43.4167 32C43.4167 26.0725 38.5942 21.25 32.6667 21.25ZM34.5417 36.125H30.7917V27.875H34.5417V36.125Z" fill="black"/>
  <path d="M32.6667 21.25C26.7392 21.25 21.9167 26.0725 21.9167 32C21.9167 37.9275 26.7392 42.75 32.6667 42.75C38.5942 42.75 43.4167 37.9275 43.4167 32C43.4167 26.0725 38.5942 21.25 32.6667 21.25ZM34.5417 36.125H30.7917V27.875H34.5417V36.125Z" fill="url(#paint1_linear_22728_7809)"/>
  </g>
  <defs>
  <linearGradient id="paint0_linear_22728_7809" x1="32.6668" y1="0" x2="32.6668" y2="64" gradientUnits="userSpaceOnUse">
  <stop stop-color="#EF8080"/>
  <stop offset="1" stop-color="#F0145A"/>
  </linearGradient>
  <linearGradient id="paint1_linear_22728_7809" x1="32.6667" y1="21.25" x2="32.6667" y2="42.75" gradientUnits="userSpaceOnUse">
  <stop stop-color="#EF8080"/>
  <stop offset="1" stop-color="#F0145A"/>
  </linearGradient>
  <clipPath id="clip0_22728_7809">
  <rect width="64" height="64" fill="white" transform="translate(0.666748)"/>
  </clipPath>
  </defs>
  </svg>


  <symbol viewBox="0 0 64 64" id="trust">
    <path d="M42.0057 56H23.0057V62H42.0057V56Z" fill="black"/>
    <path d="M42.0057 56H23.0057V62H42.0057V56Z" fill="url(#paint0_linear_22728_7816)"/>
    <path d="M15.1727 2.45168L1.73767 15.8867L5.27321 19.4223L18.7083 5.98722L15.1727 2.45168Z" fill="black"/>
    <path d="M15.1727 2.45168L1.73767 15.8867L5.27321 19.4223L18.7083 5.98722L15.1727 2.45168Z" fill="url(#paint1_linear_22728_7816)"/>
    <path d="M49.1127 2.3219L45.5771 5.85742L59.0122 19.2925L62.5477 15.757L49.1127 2.3219Z" fill="black"/>
    <path d="M49.1127 2.3219L45.5771 5.85742L59.0122 19.2925L62.5477 15.757L49.1127 2.3219Z" fill="url(#paint2_linear_22728_7816)"/>
    <path d="M44.5564 9.70648L41.8651 9.59241C41.089 9.48286 40.2981 9.55517 39.5548 9.80362C38.8115 10.0521 38.1361 10.4699 37.5819 11.024L32.0775 16.5285L26.3239 10.775C25.8244 10.2869 25.2011 9.94433 24.5214 9.78417C23.8416 9.624 23.131 9.6523 22.4661 9.86603C21.8388 10.0568 21.1715 10.0735 20.5355 9.91444C19.8995 9.75537 19.3186 9.42646 18.8551 8.96288L18.0012 8.109L7.39453 18.7156L9.12253 20.4436L9.00845 23.1348C8.89891 23.9108 8.97122 24.7017 9.21966 25.445C9.46811 26.1884 9.8859 26.8638 10.4401 27.418L20.0525 37.0304C20.181 35.7686 20.7856 34.6032 21.7432 33.7715L18.7482 30.7765L19.4553 30.0695L22.5836 33.1977C23.027 32.9452 23.5068 32.7629 24.0059 32.6571V28.9632L22.2838 27.241L22.9908 26.5339L24.0059 27.5489V22.1991C23.9948 21.3148 24.3086 20.4572 24.8879 19.789C25.4672 19.1208 26.2716 18.6885 27.1485 18.5741C27.4792 18.542 27.8128 18.5571 28.1393 18.6189L26.9098 17.3894L27.6169 16.6823L29.4131 18.4785C29.7312 17.8621 30.2233 17.3527 30.8283 17.0135C31.4333 16.6742 32.1246 16.5201 32.8165 16.5702C33.6513 16.6677 34.4258 17.0542 35.0057 17.6628C35.5855 18.2713 35.9342 19.0636 35.9913 19.9022C36.5596 19.632 37.1894 19.5175 37.8165 19.5702C38.7075 19.6768 39.5273 20.1107 40.1166 20.7875C40.7059 21.4644 41.0229 22.336 41.0059 23.2333V26.6571C41.916 26.8472 42.7551 27.287 43.4292 27.9274C44.1032 28.5677 44.5855 29.3832 44.822 30.2823L47.6105 27.4938L48.3176 28.2009L45.0023 31.5162C45.0024 31.5299 45.0059 31.5427 45.0059 31.5565V34.8766C45.9043 34.7826 46.7437 34.3844 47.3848 33.7481L54.225 26.908C54.7131 26.4084 55.0556 25.7852 55.2158 25.1054C55.3759 24.4256 55.3476 23.715 55.1339 23.0501C54.9431 22.4228 54.9264 21.7555 55.0855 21.1195C55.2445 20.4835 55.5735 19.9026 56.0371 19.439L56.8909 18.5851L46.2844 7.97852L44.5564 9.70648Z" fill="black"/>
    <path d="M44.5564 9.70648L41.8651 9.59241C41.089 9.48286 40.2981 9.55517 39.5548 9.80362C38.8115 10.0521 38.1361 10.4699 37.5819 11.024L32.0775 16.5285L26.3239 10.775C25.8244 10.2869 25.2011 9.94433 24.5214 9.78417C23.8416 9.624 23.131 9.6523 22.4661 9.86603C21.8388 10.0568 21.1715 10.0735 20.5355 9.91444C19.8995 9.75537 19.3186 9.42646 18.8551 8.96288L18.0012 8.109L7.39453 18.7156L9.12253 20.4436L9.00845 23.1348C8.89891 23.9108 8.97122 24.7017 9.21966 25.445C9.46811 26.1884 9.8859 26.8638 10.4401 27.418L20.0525 37.0304C20.181 35.7686 20.7856 34.6032 21.7432 33.7715L18.7482 30.7765L19.4553 30.0695L22.5836 33.1977C23.027 32.9452 23.5068 32.7629 24.0059 32.6571V28.9632L22.2838 27.241L22.9908 26.5339L24.0059 27.5489V22.1991C23.9948 21.3148 24.3086 20.4572 24.8879 19.789C25.4672 19.1208 26.2716 18.6885 27.1485 18.5741C27.4792 18.542 27.8128 18.5571 28.1393 18.6189L26.9098 17.3894L27.6169 16.6823L29.4131 18.4785C29.7312 17.8621 30.2233 17.3527 30.8283 17.0135C31.4333 16.6742 32.1246 16.5201 32.8165 16.5702C33.6513 16.6677 34.4258 17.0542 35.0057 17.6628C35.5855 18.2713 35.9342 19.0636 35.9913 19.9022C36.5596 19.632 37.1894 19.5175 37.8165 19.5702C38.7075 19.6768 39.5273 20.1107 40.1166 20.7875C40.7059 21.4644 41.0229 22.336 41.0059 23.2333V26.6571C41.916 26.8472 42.7551 27.287 43.4292 27.9274C44.1032 28.5677 44.5855 29.3832 44.822 30.2823L47.6105 27.4938L48.3176 28.2009L45.0023 31.5162C45.0024 31.5299 45.0059 31.5427 45.0059 31.5565V34.8766C45.9043 34.7826 46.7437 34.3844 47.3848 33.7481L54.225 26.908C54.7131 26.4084 55.0556 25.7852 55.2158 25.1054C55.3759 24.4256 55.3476 23.715 55.1339 23.0501C54.9431 22.4228 54.9264 21.7555 55.0855 21.1195C55.2445 20.4835 55.5735 19.9026 56.0371 19.439L56.8909 18.5851L46.2844 7.97852L44.5564 9.70648Z" fill="url(#paint3_linear_22728_7816)"/>
    <path d="M29.8804 21.6901C29.8044 21.0405 29.476 20.4468 28.966 20.0373C28.4559 19.6278 27.8053 19.4353 27.1546 19.5015C26.5234 19.5886 25.9463 19.9046 25.5329 20.3894C25.1194 20.8742 24.8986 21.4941 24.9124 22.1311V33.4885C23.8515 33.4885 22.8341 33.9099 22.0839 34.66C21.3338 35.4102 20.9124 36.4276 20.9124 37.4885V47.1619C20.9205 47.8603 21.1189 48.5432 21.4864 49.1371C21.8538 49.7311 22.3763 50.2135 22.9976 50.5325C23.576 50.8412 24.0597 51.3012 24.3969 51.8634C24.7342 52.4256 24.9123 53.0689 24.9124 53.7245V54.9321H39.9124V52.4885L41.896 50.6661C42.5222 50.1948 43.0303 49.5844 43.3803 48.8831C43.7302 48.1818 43.9123 47.4088 43.9124 46.6251V31.4885C43.9124 30.4276 43.4909 29.4102 42.7408 28.66C41.9906 27.9099 40.9732 27.4885 39.9124 27.4885V23.1659C39.9293 22.5187 39.7062 21.888 39.286 21.3955C38.8657 20.903 38.2781 20.5834 37.6362 20.4983C37.0063 20.4426 36.3787 20.6285 35.8807 21.0183C35.3826 21.408 35.0513 21.9725 34.9539 22.5974H35.4124V38.0407H34.4124V22.5974H34.9124V20.1659C34.9293 19.5187 34.7062 18.888 34.286 18.3955C33.8657 17.903 33.2781 17.5834 32.6362 17.4983C32.2904 17.4673 31.942 17.5086 31.613 17.6196C31.2841 17.7306 30.9819 17.909 30.7256 18.1432C30.4694 18.3775 30.2647 18.6625 30.1247 18.9802C29.9847 19.2979 29.9124 19.6413 29.9124 19.9885V21.6901H30.4124V37.1335H29.4124V21.6901H29.8804ZM25.3115 42.0407H24.3115V34.0407H25.3115V42.0407ZM39.4124 27.799H40.4124V38.2423H39.4124V27.799Z" fill="black"/>
    <path d="M29.8804 21.6901C29.8044 21.0405 29.476 20.4468 28.966 20.0373C28.4559 19.6278 27.8053 19.4353 27.1546 19.5015C26.5234 19.5886 25.9463 19.9046 25.5329 20.3894C25.1194 20.8742 24.8986 21.4941 24.9124 22.1311V33.4885C23.8515 33.4885 22.8341 33.9099 22.0839 34.66C21.3338 35.4102 20.9124 36.4276 20.9124 37.4885V47.1619C20.9205 47.8603 21.1189 48.5432 21.4864 49.1371C21.8538 49.7311 22.3763 50.2135 22.9976 50.5325C23.576 50.8412 24.0597 51.3012 24.3969 51.8634C24.7342 52.4256 24.9123 53.0689 24.9124 53.7245V54.9321H39.9124V52.4885L41.896 50.6661C42.5222 50.1948 43.0303 49.5844 43.3803 48.8831C43.7302 48.1818 43.9123 47.4088 43.9124 46.6251V31.4885C43.9124 30.4276 43.4909 29.4102 42.7408 28.66C41.9906 27.9099 40.9732 27.4885 39.9124 27.4885V23.1659C39.9293 22.5187 39.7062 21.888 39.286 21.3955C38.8657 20.903 38.2781 20.5834 37.6362 20.4983C37.0063 20.4426 36.3787 20.6285 35.8807 21.0183C35.3826 21.408 35.0513 21.9725 34.9539 22.5974H35.4124V38.0407H34.4124V22.5974H34.9124V20.1659C34.9293 19.5187 34.7062 18.888 34.286 18.3955C33.8657 17.903 33.2781 17.5834 32.6362 17.4983C32.2904 17.4673 31.942 17.5086 31.613 17.6196C31.2841 17.7306 30.9819 17.909 30.7256 18.1432C30.4694 18.3775 30.2647 18.6625 30.1247 18.9802C29.9847 19.2979 29.9124 19.6413 29.9124 19.9885V21.6901H30.4124V37.1335H29.4124V21.6901H29.8804ZM25.3115 42.0407H24.3115V34.0407H25.3115V42.0407ZM39.4124 27.799H40.4124V38.2423H39.4124V27.799Z" fill="url(#paint4_linear_22728_7816)"/>
    <defs>
      <linearGradient id="paint0_linear_22728_7816" x1="32.5057" y1="56" x2="32.5057" y2="62" gradientUnits="userSpaceOnUse">
        <stop stop-color="#EF8080"/>
        <stop offset="1" stop-color="#F0145A"/>
      </linearGradient>
      <linearGradient id="paint1_linear_22728_7816" x1="8.45519" y1="9.1692" x2="11.9907" y2="12.7047" gradientUnits="userSpaceOnUse">
        <stop stop-color="#EF8080"/>
        <stop offset="1" stop-color="#F0145A"/>
      </linearGradient>
      <linearGradient id="paint2_linear_22728_7816" x1="47.3449" y1="4.08966" x2="60.78" y2="17.5247" gradientUnits="userSpaceOnUse">
        <stop stop-color="#EF8080"/>
        <stop offset="1" stop-color="#F0145A"/>
      </linearGradient>
      <linearGradient id="paint3_linear_22728_7816" x1="32.1427" y1="7.97852" x2="32.1427" y2="37.0304" gradientUnits="userSpaceOnUse">
        <stop stop-color="#EF8080"/>
        <stop offset="1" stop-color="#F0145A"/>
      </linearGradient>
      <linearGradient id="paint4_linear_22728_7816" x1="32.4124" y1="17.4883" x2="32.4124" y2="54.9321" gradientUnits="userSpaceOnUse">
        <stop stop-color="#EF8080"/>
        <stop offset="1" stop-color="#F0145A"/>
      </linearGradient>
    </defs>
  </symbol>

  <symbol viewBox="0 0 65 64" id="protection">
    <path d="M41.5652 37.6961C43.9174 37.6961 46.2431 38.2844 48.2912 39.3974C48.6631 39.5979 49.0044 39.8368 49.3529 40.0667C52.7142 33.4869 54.488 26.5278 54.488 19.7388C54.488 19.3573 54.488 18.9634 54.4758 18.5696C54.4512 18.0158 54.0573 17.5358 53.5034 17.4127C46.0696 15.7881 39.3373 11.7634 34.045 5.78193L33.2573 4.88342C33.0234 4.61268 32.6912 4.465 32.3342 4.465C31.9527 4.41579 31.6573 4.60036 31.4234 4.85885L30.2173 6.1881C25.1958 11.7142 18.8696 15.5296 11.9281 17.2281L11.1281 17.425C10.5865 17.5481 10.205 18.0281 10.1927 18.5819C9.74962 35.8865 19.965 48.3296 24.3712 52.8834C25.5641 54.1082 26.8941 55.3256 28.1588 56.3319C27.6844 54.9011 27.4113 53.3957 27.4113 51.8499C27.4113 44.0452 33.7605 37.6961 41.5652 37.6961Z" fill="url(#paint0_linear_22728_7822)"/>
    <path d="M47.1156 41.5613C45.4172 40.6382 43.4972 40.1582 41.5649 40.1582C35.1156 40.1582 29.8726 45.4013 29.8726 51.8505C29.8726 54.029 30.4634 56.1582 31.5957 57.9797C33.7495 61.4628 37.4665 63.5428 41.5649 63.5428C48.0018 63.5428 53.2572 58.2997 53.2572 51.8505C53.2572 47.5428 50.9064 43.6043 47.1156 41.5613ZM47.5531 50.2937L38.4082 57.4103L35.2862 52.5269C34.9197 51.9542 35.0873 51.1934 35.66 50.8274C36.2334 50.4608 36.9948 50.6297 37.3596 51.2012L39.0272 53.8093L46.0411 48.3514C46.5765 47.9337 47.3505 48.0293 47.7682 48.5666C48.1859 49.1032 48.0891 49.8767 47.5531 50.2937Z" fill="url(#paint1_linear_22728_7822)"/>
    <defs>
      <linearGradient id="paint0_linear_22728_7822" x1="32.3334" y1="4.45703" x2="32.3334" y2="56.3319" gradientUnits="userSpaceOnUse">
        <stop stop-color="#EF8080"/>
        <stop offset="1" stop-color="#F0145A"/>
      </linearGradient>
      <linearGradient id="paint1_linear_22728_7822" x1="41.5649" y1="40.1582" x2="41.5649" y2="63.5428" gradientUnits="userSpaceOnUse">
        <stop stop-color="#EF8080"/>
        <stop offset="1" stop-color="#F0145A"/>
      </linearGradient>
    </defs>
  </symbol>

  <symbol viewBox="0 0 47 48" id="court">
    <path d="M32.0187 12.389C32.7507 13.121 33.9367 13.123 34.6687 12.389L37.2767 9.781C38.0077 9.049 38.0057 7.863 37.2767 7.13L30.6937 0.549C29.9637 -0.183 28.7777 -0.183 28.0457 0.549L25.4367 3.157C24.7067 3.889 24.7067 5.075 25.4367 5.805L32.0187 12.389Z" fill="url(#paint0_linear_157671_1570)"/>
    <path d="M16.4328 28.2672C17.1638 28.9962 18.3498 28.9962 19.0808 28.2672L21.6898 25.6572C22.4218 24.9272 22.4218 23.7402 21.6898 23.0082L15.1068 16.4252C14.3758 15.6952 13.1898 15.6932 12.4578 16.4252L9.84976 19.0332C9.11776 19.7652 9.11976 20.9512 9.84976 21.6832L16.4328 28.2672Z" fill="url(#paint1_linear_157671_1570)"/>
    <path d="M46.3149 28.8931L43.6679 26.2431C42.9339 25.5131 41.7509 25.5131 41.0199 26.2431L39.8589 27.4031L28.6539 16.1961L31.0809 13.7681L24.3479 7.03711L21.9199 9.46511L18.8279 12.5551L16.4539 14.9291L23.1859 21.6621L25.5629 19.2891L36.7659 30.4941L35.7179 31.5431C34.9859 32.2721 34.9839 33.4591 35.7179 34.1911L38.3649 36.8391C39.0989 37.5731 40.2839 37.5731 41.0149 36.8391L46.3139 31.5421C47.0469 30.8091 47.0469 29.6251 46.3149 28.8931Z" fill="url(#paint2_linear_157671_1570)"/>
    <path d="M26.7437 36.9425C26.7437 35.7435 25.7717 34.7695 24.5707 34.7695H7.60275C6.40275 34.7695 5.42975 35.7435 5.42975 36.9425V40.4695H0.666748V47.8585H31.2247V40.4695H26.7437V36.9425Z" fill="url(#paint3_linear_157671_1570)"/>
    <defs>
      <linearGradient id="paint0_linear_157671_1570" x1="31.3567" y1="0" x2="31.3567" y2="12.9388" gradientUnits="userSpaceOnUse">
        <stop stop-color="#EF8080"/>
        <stop offset="1" stop-color="#F0145A"/>
      </linearGradient>
      <linearGradient id="paint1_linear_157671_1570" x1="15.7701" y1="15.877" x2="15.7701" y2="28.814" gradientUnits="userSpaceOnUse">
        <stop stop-color="#EF8080"/>
        <stop offset="1" stop-color="#F0145A"/>
      </linearGradient>
      <linearGradient id="paint2_linear_157671_1570" x1="31.6588" y1="7.03711" x2="31.6588" y2="37.3896" gradientUnits="userSpaceOnUse">
        <stop stop-color="#EF8080"/>
        <stop offset="1" stop-color="#F0145A"/>
      </linearGradient>
      <linearGradient id="paint3_linear_157671_1570" x1="15.9457" y1="34.7695" x2="15.9457" y2="47.8585" gradientUnits="userSpaceOnUse">
        <stop stop-color="#EF8080"/>
        <stop offset="1" stop-color="#F0145A"/>
      </linearGradient>
    </defs>
  </symbol>
</svg>